<svg width="256" height="256" viewBox="0 0 256 256" fill="none" xmlns="http://www.w3.org/2000/svg">
<rect width="256" height="256" rx="64" fill="url(#paint0_linear_110_22)"/>
<path d="M154.772 68.6926C161.029 62.4358 171.19 62.4358 177.447 68.6926L187.307 78.5615C193.564 84.8163 193.564 94.9681 187.307 101.225L175.194 113.339L142.659 80.8067L154.772 68.6926ZM169.538 118.996L111.176 177.339C108.573 179.942 105.344 181.869 101.816 182.895L71.7007 191.756C69.5935 192.381 67.3135 191.806 65.7593 190.029C64.2051 188.702 63.624 186.424 64.2442 184.297L73.1022 154.187C74.1433 150.658 76.0529 147.429 78.6582 144.826L137.003 86.4682L169.538 118.996Z" fill="white"/>
<defs>
<linearGradient id="paint0_linear_110_22" x1="128" y1="0" x2="128" y2="256" gradientUnits="userSpaceOnUse">
<stop stop-color="#8E59FF"/>
<stop offset="1" stop-color="#29055C"/>
</linearGradient>
</defs>
</svg>
